<?xml version="1.0" standalone="no"?><!DOCTYPE svg PUBLIC "-//W3C//DTD SVG 1.1//EN" "http://www.w3.org/Graphics/SVG/1.1/DTD/svg11.dtd"><svg height="1024" node-id="1" sillyvg="true" template-height="1024" template-width="1024" version="1.1" viewBox="0 0 1024 1024" width="1024" xmlns="http://www.w3.org/2000/svg" xmlns:xlink="http://www.w3.org/1999/xlink"><defs node-id="84"></defs><path d="M 1004.37 448.00 C 992.59 405.55 914.02 451.72 914.02 451.72 L 934.58 414.42 C 937.07 410.67 939.24 406.72 941.09 402.61 C 951.41 379.52 951.28 354.81 941.03 333.30 C 938.22 320.24 929.69 301.57 906.16 281.12 C 861.63 242.42 712.35 215.94 669.16 221.82 C 625.97 227.70 708.45 245.88 708.45 245.88 L 701.91 245.82 C 576.00 232.51 449.38 230.79 323.73 233.39 C 292.22 234.04 260.62 235.08 229.73 240.39 C 220.85 241.92 211.30 244.26 206.02 251.39 C 182.56 283.20 278.51 286.31 293.56 285.69 C 227.66 294.26 154.43 296.89 93.14 322.36 C 84.59 325.91 76.14 330.12 69.67 336.70 C 63.20 343.28 59.07 352.64 60.52 362.00 C 64.74 389.21 102.24 397.28 123.52 403.32 C 123.52 403.32 1.30 484.60 15.70 525.85 C 21.65 542.91 30.53 560.85 46.98 578.53 C 37.65 590.01 29.60 602.48 22.98 615.71 C 19.07 623.71 13.98 634.63 18.33 643.83 C 40.56 690.70 378.18 851.53 648.72 805.63 C 720.58 793.43 792.16 773.27 855.16 737.63 C 917.86 702.14 981.75 643.51 997.55 569.63 C 998.07 567.20 998.45 564.83 998.71 562.54 C 1008.51 528.41 1014.23 483.54 1004.37 448.00 Z" fill="#8c71ff" fill-rule="nonzero" node-id="86" stroke="none" target-height="635.59" target-width="1012.93" target-x="1.3" target-y="215.93999"></path><g node-id="263"><path d="M 1004.37 448.00 C 992.59 405.55 914.02 451.72 914.02 451.72 L 934.58 414.42 C 937.07 410.67 939.24 406.72 941.09 402.61 C 951.41 379.52 951.28 354.81 941.03 333.30 C 938.22 320.24 929.69 301.57 906.16 281.12 C 861.63 242.42 712.35 215.94 669.16 221.82 C 625.97 227.70 708.45 245.88 708.45 245.88 L 701.91 245.82 C 576.00 232.51 449.38 230.79 323.73 233.39 C 292.22 234.04 260.62 235.08 229.73 240.39 C 220.85 241.92 211.30 244.26 206.02 251.39 C 182.56 283.20 278.51 286.31 293.56 285.69 C 227.66 294.26 154.43 296.89 93.14 322.36 C 84.59 325.91 76.14 330.12 69.67 336.70 C 63.20 343.28 59.07 352.64 60.52 362.00 C 64.74 389.21 102.24 397.28 123.52 403.32 C 123.52 403.32 1.30 484.60 15.70 525.85 C 21.65 542.91 30.53 560.85 46.98 578.53 C 37.65 590.01 29.60 602.48 22.98 615.71 C 19.07 623.71 13.98 634.63 18.33 643.83 C 40.56 690.70 378.18 851.53 648.72 805.63 C 720.58 793.43 792.16 773.27 855.16 737.63 C 917.86 702.14 981.75 643.51 997.55 569.63 C 998.07 567.20 998.45 564.83 998.71 562.54 C 1008.51 528.41 1014.23 483.54 1004.37 448.00 Z" fill="#ffffff" fill-opacity="0.86" fill-rule="nonzero" group-id="1" node-id="90" stroke="none" target-height="635.59" target-width="1012.93" target-x="1.3" target-y="215.93999"></path></g><path d="M 160.68 558.90 C 165.01 560.79 175.61 560.55 175.62 560.55 C 175.63 560.55 173.34 553.61 173.14 553.19 C 170.81 548.33 163.46 540.29 157.48 541.10 C 155.47 541.43 153.69 542.60 152.60 544.32 C 151.50 546.03 151.19 548.14 151.74 550.10 C 152.74 554.21 157.00 557.28 160.68 558.90 Z" fill="#0c0426" fill-rule="nonzero" node-id="93" stroke="none" target-height="20.5" target-width="24.440308" target-x="151.1897" target-y="540.29"></path><path d="M 164.34 589.60 C 168.83 590.25 178.29 587.51 179.04 587.29 C 180.60 592.70 182.52 598.00 184.78 603.16 C 186.08 606.16 187.48 609.16 188.93 612.16 C 188.07 610.90 187.29 609.77 187.16 609.63 C 183.63 605.55 174.42 599.75 168.86 602.11 C 167.02 602.95 165.62 604.54 165.01 606.48 C 164.41 608.41 164.65 610.52 165.69 612.26 C 167.75 615.99 172.69 617.84 176.69 618.42 C 180.69 619.00 188.84 616.83 190.98 616.23 C 191.55 617.37 192.10 618.51 192.67 619.65 C 195.41 625.10 198.17 630.53 200.67 635.94 C 201.56 637.85 202.38 639.76 203.20 641.67 C 202.43 640.54 201.77 639.61 201.66 639.47 C 198.13 635.39 188.92 629.59 183.36 631.95 C 181.52 632.79 180.12 634.38 179.51 636.32 C 178.91 638.25 179.15 640.36 180.19 642.10 C 182.25 645.84 187.19 647.68 191.19 648.26 C 195.19 648.84 202.55 646.89 205.10 646.18 C 205.88 648.18 206.66 650.18 207.33 652.09 C 207.76 653.44 208.26 654.70 208.61 656.09 L 209.73 660.09 C 210.35 662.67 211.00 665.33 211.55 667.86 C 211.93 669.62 212.27 671.30 212.62 673.00 C 211.75 671.09 209.97 667.39 209.78 667.10 C 206.91 662.53 198.69 655.40 192.78 656.89 C 190.83 657.45 189.21 658.81 188.32 660.63 C 187.43 662.45 187.36 664.57 188.12 666.45 C 189.58 670.45 194.12 673.02 198.01 674.20 C 202.25 675.49 211.64 674.31 212.81 674.15 C 213.37 676.96 213.89 679.69 214.34 682.28 C 215.34 687.99 216.11 693.11 216.69 697.44 L 220.69 697.44 C 220.00 692.96 219.10 687.62 217.91 681.62 C 217.35 678.77 216.70 675.74 215.99 672.62 C 218.82 671.49 221.58 670.19 224.25 668.73 C 227.34 672.08 235.25 676.00 236.25 676.50 C 235.18 679.15 234.10 681.71 233.05 684.12 C 230.86 689.12 228.78 693.63 226.94 697.43 L 231.22 697.43 C 232.80 693.93 234.54 689.93 236.35 685.51 C 237.45 682.83 238.58 679.93 239.71 676.95 C 240.85 677.19 250.14 679.08 254.47 678.10 C 258.40 677.21 263.16 674.99 264.92 671.10 C 265.82 669.27 265.89 667.15 265.13 665.27 C 264.37 663.39 262.83 661.92 260.92 661.23 C 255.20 659.31 246.46 665.81 243.26 670.15 C 243.07 670.40 241.33 673.41 240.26 675.32 C 240.71 674.10 241.17 672.92 241.62 671.66 C 242.54 669.17 243.37 666.66 244.28 663.96 C 244.68 662.64 245.08 661.31 245.48 659.96 C 245.88 658.61 246.19 657.18 246.56 655.78 C 247.33 652.51 247.96 649.16 248.56 645.78 C 250.74 646.58 258.56 649.29 262.56 649.00 C 266.56 648.71 271.62 647.25 273.94 643.67 C 275.11 642.01 275.51 639.93 275.05 637.95 C 274.60 635.98 273.32 634.29 271.54 633.31 C 266.17 630.54 256.54 635.65 252.73 639.45 C 252.49 639.69 250.06 642.73 248.73 644.45 C 249.05 642.45 249.38 640.38 249.64 638.30 C 250.38 632.30 250.95 626.23 251.54 620.17 C 251.72 618.31 251.92 616.46 252.12 614.61 C 252.89 614.90 262.12 618.32 266.60 618.00 C 270.60 617.72 275.66 616.24 277.98 612.67 C 279.15 611.01 279.55 608.93 279.09 606.95 C 278.64 604.98 277.36 603.29 275.58 602.31 C 270.22 599.54 260.58 604.65 256.77 608.45 C 256.49 608.74 252.99 613.11 252.15 614.27 C 252.58 610.19 253.05 606.13 253.68 602.14 C 254.49 596.76 255.66 591.43 257.16 586.20 C 257.51 586.33 267.09 589.95 271.72 589.62 C 275.72 589.34 280.78 587.86 283.10 584.29 C 284.27 582.63 284.67 580.55 284.21 578.57 C 283.76 576.60 282.48 574.91 280.70 573.93 C 275.33 571.16 265.70 576.27 261.89 580.07 C 261.59 580.37 257.83 585.07 257.21 585.98 C 257.30 585.68 257.36 585.36 257.45 585.05 C 259.11 579.84 261.22 574.79 263.77 569.96 C 265.14 567.28 266.61 564.79 268.08 562.39 C 269.80 563.25 277.67 567.07 281.87 567.24 C 285.87 567.40 291.07 566.49 293.77 563.19 C 295.11 561.67 295.74 559.65 295.50 557.63 C 295.26 555.62 294.18 553.80 292.52 552.63 C 287.52 549.29 277.37 553.31 273.15 556.63 C 272.93 556.81 270.80 558.93 269.28 560.49 C 269.96 559.42 270.64 558.31 271.28 557.29 C 273.80 553.49 276.35 550.16 278.63 547.23 C 279.94 545.58 281.16 544.11 282.31 542.74 C 284.43 542.74 292.98 542.45 296.71 540.74 C 300.44 539.03 304.52 535.84 305.41 531.67 C 305.90 529.70 305.52 527.61 304.38 525.93 C 303.23 524.25 301.42 523.14 299.41 522.87 C 293.41 522.22 286.27 530.45 284.08 535.38 C 283.89 535.80 281.69 542.80 281.80 542.80 L 282.00 542.80 C 280.86 544.09 279.66 545.48 278.38 547.04 C 276.03 549.92 273.38 553.20 270.78 556.97 C 267.92 561.00 265.29 565.18 262.91 569.51 C 260.22 574.35 257.97 579.41 256.18 584.65 C 256.18 584.71 256.18 584.78 256.18 584.84 C 256.18 583.07 256.13 578.13 256.08 577.75 C 255.39 572.40 250.91 562.47 244.97 561.38 C 242.97 561.07 240.92 561.62 239.35 562.90 C 237.78 564.18 236.82 566.07 236.73 568.10 C 236.38 572.35 239.46 576.60 242.47 579.28 C 245.85 582.28 255.26 585.28 256.00 585.47 C 254.31 590.84 252.97 596.32 252.00 601.87 C 251.43 605.10 251.00 608.37 250.51 611.66 C 250.51 610.13 250.45 608.76 250.43 608.57 C 249.73 603.22 245.25 593.30 239.31 592.20 C 237.31 591.89 235.26 592.44 233.69 593.72 C 232.12 595.01 231.17 596.89 231.07 598.92 C 230.72 603.17 233.81 607.42 236.81 610.10 C 239.81 612.78 247.81 615.49 249.94 616.16 C 249.78 617.42 249.61 618.68 249.46 619.95 C 248.74 626.01 248.04 632.06 247.18 637.95 C 246.88 640.04 246.50 642.08 246.13 644.12 C 246.13 642.76 246.13 641.62 246.06 641.44 C 245.36 636.09 240.88 626.17 234.95 625.07 C 232.94 624.76 230.90 625.31 229.33 626.59 C 227.75 627.87 226.80 629.76 226.70 631.79 C 226.35 636.04 229.44 640.29 232.44 642.98 C 235.44 645.67 242.68 648.10 245.19 648.91 C 244.75 650.99 244.31 653.08 243.79 655.07 C 243.40 656.43 243.13 657.76 242.66 659.07 C 242.19 660.38 241.81 661.73 241.38 663.07 C 240.47 665.56 239.55 668.14 238.61 670.55 C 237.96 672.23 237.32 673.82 236.67 675.43 C 237.00 673.36 237.55 669.29 237.56 668.94 C 237.49 664.20 236.21 659.56 233.84 655.45 C 233.85 654.92 233.82 654.39 233.74 653.87 C 233.49 651.86 232.39 650.04 230.72 648.89 C 229.06 647.73 226.98 647.33 225.00 647.80 C 219.17 649.36 215.47 659.60 215.19 664.98 C 215.19 665.30 215.38 668.77 215.55 670.98 C 215.26 669.71 214.99 668.48 214.67 667.18 C 214.06 664.59 213.37 662.04 212.67 659.28 C 212.27 657.96 211.87 656.63 211.46 655.28 C 211.05 653.93 210.52 652.57 210.05 651.20 C 208.90 648.04 207.58 644.90 206.17 641.77 C 208.43 641.23 216.42 639.19 219.63 636.72 C 222.84 634.25 226.22 630.26 226.19 626.00 C 226.24 623.97 225.43 622.01 223.96 620.62 C 222.49 619.22 220.49 618.52 218.47 618.68 C 212.47 619.34 207.26 628.90 206.17 634.18 C 206.10 634.51 205.74 638.39 205.59 640.52 C 204.73 638.64 203.88 636.76 202.95 634.89 C 200.27 629.49 197.39 624.10 194.54 618.72 C 193.66 617.07 192.81 615.41 191.95 613.72 C 192.76 613.54 202.31 611.32 205.90 608.56 C 209.10 606.11 212.49 602.10 212.46 597.84 C 212.51 595.81 211.70 593.85 210.23 592.46 C 208.76 591.06 206.76 590.36 204.74 590.52 C 198.74 591.17 193.53 600.74 192.44 606.02 C 192.36 606.41 191.85 612.02 191.79 613.42 C 189.90 609.78 188.05 606.13 186.37 602.47 C 184.08 597.53 182.11 592.44 180.48 587.25 C 180.86 587.16 190.83 584.89 194.48 582.07 C 197.67 579.62 201.06 575.61 201.03 571.34 C 201.09 569.31 200.27 567.36 198.80 565.96 C 197.33 564.57 195.33 563.86 193.31 564.03 C 187.31 564.68 182.10 574.24 181.01 579.52 C 180.93 579.94 180.39 585.94 180.37 587.04 C 180.27 586.73 180.14 586.43 180.06 586.13 C 178.57 580.87 177.54 575.49 177.00 570.05 C 176.66 567.05 176.51 564.17 176.42 561.35 C 178.32 561.12 187.01 559.97 190.60 557.79 C 194.19 555.61 197.85 552.09 198.29 547.85 C 198.57 545.84 197.98 543.81 196.67 542.26 C 195.36 540.71 193.46 539.79 191.43 539.73 C 185.43 539.73 179.16 548.65 177.50 553.73 C 177.40 554.01 176.80 556.95 176.39 559.09 C 176.39 557.82 176.32 556.52 176.33 555.30 C 176.33 550.73 176.63 546.55 176.91 542.85 C 177.09 540.75 177.30 538.85 177.51 537.08 C 179.25 535.87 186.24 530.95 188.39 527.42 C 190.54 523.89 192.20 519.02 190.63 515.06 C 189.95 513.15 188.49 511.61 186.62 510.84 C 184.74 510.07 182.63 510.13 180.80 511.01 C 175.43 513.79 174.02 524.59 174.91 529.90 C 174.98 530.36 177.01 537.41 177.10 537.35 L 177.21 537.28 C 176.97 538.98 176.74 540.81 176.52 542.81 C 176.16 546.52 175.78 550.70 175.67 555.29 C 175.50 560.23 175.62 565.17 176.02 570.09 C 176.45 575.61 177.37 581.07 178.76 586.43 L 178.83 586.62 C 177.88 585.13 175.08 581.04 174.83 580.75 C 171.30 576.68 162.09 570.87 156.53 573.23 C 154.69 574.07 153.29 575.66 152.68 577.60 C 152.08 579.53 152.32 581.64 153.36 583.38 C 155.44 587.17 160.35 589.00 164.34 589.60 Z" fill="#0c0426" fill-rule="nonzero" node-id="95" stroke="none" target-height="187.3721" target-width="153.818" target-x="152.0788" target-y="510.0679"></path><path d="M 267.88 561.23 C 267.97 561.29 269.81 554.18 269.88 553.72 C 270.62 548.38 268.88 537.63 263.48 535.00 C 261.63 534.17 259.51 534.16 257.66 534.98 C 255.80 535.81 254.39 537.38 253.76 539.31 C 252.30 543.31 254.15 548.23 256.34 551.61 C 258.90 555.58 267.87 561.22 267.88 561.23 Z" fill="#0c0426" fill-rule="nonzero" node-id="97" stroke="none" target-height="27.127502" target-width="18.319992" target-x="252.3" target-y="534.1625"></path><path d="M 254.15 754.73 L 196.22 754.73 L 188.98 690.39 L 261.39 690.39 L 254.15 754.73 Z" fill="#ffffff" fill-rule="nonzero" node-id="99" stroke="#0c0426" stroke-linecap="round" stroke-width="1" target-height="64.339966" target-width="72.41002" target-x="188.98" target-y="690.38995"></path><path d="M 190.31 702.18 L 191.01 708.41 L 259.37 708.41 L 260.07 702.18 L 190.31 702.18 Z" fill="#0c0426" fill-rule="nonzero" node-id="101" stroke="none" target-height="6.2299805" target-width="69.76001" target-x="190.31" target-y="702.18"></path><path d="M 257.82 722.12 L 258.52 715.89 L 191.85 715.89 L 192.55 722.12 L 257.82 722.12 Z" fill="#0c0426" fill-rule="nonzero" node-id="103" stroke="none" target-height="6.2299805" target-width="66.66998" target-x="191.85" target-y="715.89"></path><g node-id="264"><path d="M 303.44 261.04 L 680.13 261.04 L 680.13 733.88 L 303.44 733.88 Z" fill="#0c0426" fill-opacity="0.2" fill-rule="nonzero" group-id="2" node-id="107" stroke="none" target-height="472.84" target-width="376.69" target-x="303.44" target-y="261.04"></path></g><path d="M 323.65 240.84 L 700.34 240.84 L 700.34 713.68 L 323.65 713.68 Z" fill="#ffffff" fill-rule="nonzero" node-id="110" stroke="#0c0426" stroke-linecap="butt" stroke-width="1" target-height="472.84003" target-width="376.68997" target-x="323.65" target-y="240.83998"></path><path d="M 323.65 240.84 L 700.34 240.84 L 700.34 269.71 L 323.65 269.71 Z" fill="#0c0426" fill-rule="nonzero" node-id="112" stroke="none" target-height="28.87001" target-width="376.68997" target-x="323.65" target-y="240.83998"></path><path d="M 374.14 327.65 C 374.14 324.34 371.45 321.65 368.14 321.65 C 364.83 321.65 362.14 324.34 362.14 327.65 C 362.14 330.96 364.83 333.65 368.14 333.65 C 371.45 333.65 374.14 330.96 374.14 327.65 Z" fill="#ffffff" fill-rule="nonzero" node-id="114" stroke="#0c0426" stroke-linecap="round" stroke-width="1" target-height="12" target-width="12" target-x="362.14" target-y="321.65"></path><path d="M 390.12 328.15 L 530.33 328.15" fill="none" node-id="116" stroke="#0c0426" stroke-linecap="round" stroke-width="1" target-height="0" target-width="140.21002" target-x="390.12" target-y="328.15"></path><path d="M 374.14 302.75 C 374.14 299.44 371.45 296.75 368.14 296.75 C 364.83 296.75 362.14 299.44 362.14 302.75 C 362.14 306.06 364.83 308.75 368.14 308.75 C 371.45 308.75 374.14 306.06 374.14 302.75 Z" fill="#ffffff" fill-rule="nonzero" node-id="118" stroke="#0c0426" stroke-linecap="round" stroke-width="1" target-height="12" target-width="12" target-x="362.14" target-y="296.75"></path><path d="M 390.12 303.25 L 530.33 303.25" fill="none" node-id="120" stroke="#0c0426" stroke-linecap="round" stroke-width="1" target-height="0" target-width="140.21002" target-x="390.12" target-y="303.25"></path><path d="M 374.14 352.56 C 374.14 349.25 371.45 346.56 368.14 346.56 C 364.83 346.56 362.14 349.25 362.14 352.56 C 362.14 355.87 364.83 358.56 368.14 358.56 C 371.45 358.56 374.14 355.87 374.14 352.56 Z" fill="#ffffff" fill-rule="nonzero" node-id="122" stroke="#0c0426" stroke-linecap="round" stroke-width="1" target-height="12.0000305" target-width="12" target-x="362.14" target-y="346.55997"></path><path d="M 390.12 353.06 L 530.33 353.06" fill="none" node-id="124" stroke="#0c0426" stroke-linecap="round" stroke-width="1" target-height="0" target-width="140.21002" target-x="390.12" target-y="353.06"></path><path d="M 374.14 377.46 C 374.14 374.15 371.45 371.46 368.14 371.46 C 364.83 371.46 362.14 374.15 362.14 377.46 C 362.14 380.77 364.83 383.46 368.14 383.46 C 371.45 383.46 374.14 380.77 374.14 377.46 Z" fill="#ffffff" fill-rule="nonzero" node-id="126" stroke="#0c0426" stroke-linecap="round" stroke-width="1" target-height="12.0000305" target-width="12" target-x="362.14" target-y="371.45996"></path><path d="M 390.12 377.96 L 530.33 377.96" fill="none" node-id="128" stroke="#0c0426" stroke-linecap="round" stroke-width="1" target-height="0" target-width="140.21002" target-x="390.12" target-y="377.96"></path><g node-id="265"><path d="M 358.38 570.31 L 666.93 570.31 L 666.93 585.38 L 358.38 585.38 Z" fill="#0c0426" fill-opacity="0.05" fill-rule="nonzero" group-id="3" node-id="132" stroke="none" target-height="15.070007" target-width="308.55" target-x="358.38" target-y="570.31"></path><path d="M 358.38 603.17 L 666.93 603.17 L 666.93 618.24 L 358.38 618.24 Z" fill="#0c0426" fill-opacity="0.05" fill-rule="nonzero" group-id="3" node-id="134" stroke="none" target-height="15.070007" target-width="308.55" target-x="358.38" target-y="603.17"></path><path d="M 358.38 636.04 L 666.93 636.04 L 666.93 651.11 L 358.38 651.11 Z" fill="#0c0426" fill-opacity="0.05" fill-rule="nonzero" group-id="3" node-id="136" stroke="none" target-height="15.070007" target-width="308.55" target-x="358.38" target-y="636.04"></path><path d="M 358.38 668.90 L 666.93 668.90 L 666.93 683.97 L 358.38 683.97 Z" fill="#0c0426" fill-opacity="0.05" fill-rule="nonzero" group-id="3" node-id="138" stroke="none" target-height="15.070007" target-width="308.55" target-x="358.38" target-y="668.9"></path></g><path d="M 627.38 587.55 L 650.49 587.55 L 650.49 683.92 L 627.38 683.92 Z" fill="#8c71ff" fill-rule="nonzero" node-id="141" stroke="none" target-height="96.369995" target-width="23.109985" target-x="627.38" target-y="587.55"></path><path d="M 595.80 547.78 L 618.91 547.78 L 618.91 683.92 L 595.80 683.92 Z" fill="#0c0426" fill-rule="nonzero" node-id="143" stroke="none" target-height="136.14001" target-width="23.109985" target-x="595.8" target-y="547.78"></path><path d="M 564.22 596.72 L 587.33 596.72 L 587.33 683.91 L 564.22 683.91 Z" fill="#8c71ff" fill-rule="nonzero" node-id="145" stroke="none" target-height="87.19" target-width="23.109985" target-x="564.22" target-y="596.72"></path><path d="M 532.64 648.73 L 555.75 648.73 L 555.75 683.91 L 532.64 683.91 Z" fill="#0c0426" fill-rule="nonzero" node-id="147" stroke="none" target-height="35.179993" target-width="23.109985" target-x="532.64" target-y="648.73"></path><path d="M 501.06 579.90 L 524.17 579.90 L 524.17 683.91 L 501.06 683.91 Z" fill="#8c71ff" fill-rule="nonzero" node-id="149" stroke="none" target-height="104.01001" target-width="23.109985" target-x="501.06" target-y="579.9"></path><path d="M 469.48 601.31 L 492.59 601.31 L 492.59 683.91 L 469.48 683.91 Z" fill="#0c0426" fill-rule="nonzero" node-id="151" stroke="none" target-height="82.599976" target-width="23.110016" target-x="469.48" target-y="601.31"></path><path d="M 437.90 653.32 L 461.01 653.32 L 461.01 683.91 L 437.90 683.91 Z" fill="#8c71ff" fill-rule="nonzero" node-id="153" stroke="none" target-height="30.590027" target-width="23.110016" target-x="437.9" target-y="653.32"></path><path d="M 406.32 624.68 L 429.43 624.68 L 429.43 683.92 L 406.32 683.92 Z" fill="#0c0426" fill-rule="nonzero" node-id="155" stroke="none" target-height="59.23999" target-width="23.109985" target-x="406.32" target-y="624.68"></path><path d="M 374.74 610.71 L 397.85 610.71 L 397.85 683.91 L 374.74 683.91 Z" fill="#8c71ff" fill-rule="nonzero" node-id="157" stroke="none" target-height="73.20001" target-width="23.109955" target-x="374.74002" target-y="610.71"></path><path d="M 577.70 288.60 L 644.79 288.60 C 653.07 288.60 659.78 295.31 659.78 303.59 L 659.78 370.68 C 659.78 378.96 653.07 385.67 644.79 385.67 L 577.70 385.67 C 569.42 385.67 562.71 378.96 562.71 370.68 L 562.71 303.59 C 562.71 295.31 569.42 288.60 577.70 288.60 Z" fill="#0c0426" fill-rule="nonzero" node-id="159" stroke="none" target-height="97.07001" target-width="97.07001" target-x="562.71" target-y="288.6"></path><path d="M 618.13 350.88 L 601.00 350.88 L 601.00 349.16 C 600.92 346.75 601.26 344.34 602.00 342.04 C 602.68 340.20 603.70 338.51 605.00 337.04 C 607.76 334.20 610.71 331.54 613.83 329.09 C 616.27 327.09 617.49 325.27 617.49 323.62 C 617.58 322.18 617.04 320.77 616.02 319.76 C 614.77 318.75 613.18 318.25 611.57 318.38 C 609.58 318.32 607.66 319.09 606.26 320.50 C 604.86 321.92 603.96 324.39 603.57 327.91 L 586.00 325.75 C 586.60 319.31 588.93 314.12 593.00 310.19 C 597.07 306.26 603.32 304.29 611.77 304.29 C 618.34 304.29 623.65 305.66 627.68 308.40 C 633.16 312.11 635.90 317.05 635.90 323.22 C 635.89 325.84 635.15 328.40 633.78 330.63 C 632.36 333.01 629.47 335.92 625.10 339.36 C 622.06 341.77 620.14 343.70 619.34 345.16 C 618.47 346.94 618.05 348.90 618.13 350.88 Z M 600.37 355.44 L 618.76 355.44 L 618.76 371.67 L 600.37 371.67 Z" fill="#8c71ff" fill-rule="nonzero" node-id="161" stroke="none" target-height="67.380005" target-width="49.900024" target-x="586" target-y="304.29"></path><path d="M 487.97 431.77 L 501.38 431.77 L 501.38 445.18 L 487.97 445.18 Z" fill="#0c0426" fill-rule="nonzero" node-id="163" stroke="none" target-height="13.410034" target-width="13.410004" target-x="487.97" target-y="431.76996"></path><path d="M 509.76 438.47 L 564.22 438.47" fill="none" node-id="165" stroke="#0c0426" stroke-linecap="butt" stroke-width="1" target-height="0" target-width="54.45996" target-x="509.76" target-y="438.47"></path><path d="M 487.97 456.07 L 501.38 456.07 L 501.38 469.48 L 487.97 469.48 Z" fill="#8c71ff" fill-rule="nonzero" node-id="167" stroke="none" target-height="13.410004" target-width="13.410004" target-x="487.97" target-y="456.07"></path><path d="M 509.76 462.77 L 564.22 462.77" fill="none" node-id="169" stroke="#0c0426" stroke-linecap="butt" stroke-width="1" target-height="0" target-width="54.45996" target-x="509.76" target-y="462.76996"></path><path d="M 487.97 480.37 L 501.38 480.37 L 501.38 493.78 L 487.97 493.78 Z" fill="#0c0426" fill-rule="nonzero" node-id="171" stroke="none" target-height="13.410004" target-width="13.410004" target-x="487.97" target-y="480.37"></path><path d="M 509.76 487.07 L 564.22 487.07" fill="none" node-id="173" stroke="#0c0426" stroke-linecap="butt" stroke-width="1" target-height="0" target-width="54.45996" target-x="509.76" target-y="487.07004"></path><path d="M 431.73 502.61 C 445.56 496.77 455.83 484.76 459.47 470.20 C 463.12 455.64 459.70 440.22 450.26 428.55" fill="none" node-id="175" stroke="#8c71ff" stroke-linecap="butt" stroke-width="12" target-height="74.06003" target-width="31.38733" target-x="431.72998" target-y="428.55"></path><path d="M 373.15 484.72 C 385.79 504.05 410.45 511.58 431.73 502.61" fill="none" node-id="177" stroke="#c9c9c9" stroke-linecap="butt" stroke-width="12" target-height="26.85553" target-width="58.579987" target-x="373.15" target-y="484.71997"></path><path d="M 450.26 428.55 C 434.26 408.76 405.56 404.99 385.00 419.97 C 364.43 434.95 359.22 463.43 373.15 484.72" fill="none" node-id="179" stroke="#0c0426" stroke-linecap="butt" stroke-width="12" target-height="79.729706" target-width="91.03854" target-x="359.22147" target-y="404.99026"></path><path d="M 392.96 453.39 L 434.76 453.39" fill="none" node-id="181" stroke="#0c0426" stroke-linecap="butt" stroke-width="1" target-height="0" target-width="41.80002" target-x="392.96" target-y="453.39"></path><path d="M 392.96 465.74 L 434.76 465.74" fill="none" node-id="183" stroke="#0c0426" stroke-linecap="butt" stroke-width="1" target-height="0" target-width="41.80002" target-x="392.96" target-y="465.74"></path><g node-id="266"><path d="M 724.83 337.67 L 755.26 368.10 L 618.25 505.12 L 587.81 474.69 Z" fill="#8c71ff" fill-rule="nonzero" group-id="4" node-id="187" stroke="#0c0426" stroke-linecap="butt" stroke-width="1" target-height="167.44995" target-width="167.44995" target-x="587.81305" target-y="337.6697"></path></g><path d="M 688.80 373.75 L 696.53 381.48" fill="none" node-id="190" stroke="#0c0426" stroke-linecap="round" stroke-width="1" target-height="7.730011" target-width="7.7300415" target-x="688.8" target-y="373.75"></path><path d="M 678.35 384.20 L 686.08 391.93" fill="none" node-id="192" stroke="#0c0426" stroke-linecap="round" stroke-width="1" target-height="7.7299805" target-width="7.7300415" target-x="678.35" target-y="384.2"></path><path d="M 634.32 428.23 L 642.05 435.96" fill="none" node-id="194" stroke="#0c0426" stroke-linecap="round" stroke-width="1" target-height="7.72995" target-width="7.7299805" target-x="634.32" target-y="428.23"></path><path d="M 623.87 438.68 L 631.60 446.41" fill="none" node-id="196" stroke="#0c0426" stroke-linecap="round" stroke-width="1" target-height="7.730011" target-width="7.7299805" target-x="623.87" target-y="438.68"></path><path d="M 569.10 523.84 L 578.09 484.42 L 608.52 514.85 L 569.10 523.84 Z" fill="#8c71ff" fill-rule="nonzero" node-id="198" stroke="#0c0426" stroke-linecap="butt" stroke-width="1" target-height="39.420044" target-width="39.420044" target-x="569.1" target-y="484.41998"></path><path d="M 569.10 523.84 L 571.89 511.59 L 581.35 521.05 L 569.10 523.84 Z" fill="#0c0426" fill-rule="nonzero" node-id="200" stroke="none" target-height="12.2500305" target-width="12.25" target-x="569.1" target-y="511.59"></path><g node-id="267"><path d="M 582.70 480.03 L 612.91 510.24 L 608.42 514.73 L 578.21 484.52 Z" fill="#8c71ff" fill-rule="nonzero" group-id="5" node-id="204" stroke="#0c0426" stroke-linecap="butt" stroke-width="1" target-height="34.704773" target-width="34.704773" target-x="578.2072" target-y="480.02588"></path></g><g node-id="268"><path d="M 747.25 331.52 L 761.43 345.69 C 765.92 350.18 765.92 357.47 761.43 361.96 L 751.24 372.14 L 751.24 372.14 L 720.84 341.73 L 720.84 341.73 L 731.02 331.55 C 735.50 327.07 742.75 327.06 747.25 331.52 Z" fill="#0c0426" fill-rule="nonzero" group-id="6" node-id="209" stroke="none" target-height="45.080994" target-width="45.07898" target-x="720.8385" target-y="327.0583"></path></g><g node-id="269"><path d="M 569.09 523.84 C 569.09 523.84 511.24 567.58 450.26 553.20 C 389.28 538.82 464.97 521.86 555.75 548.94" fill="none" group-id="7" node-id="214" stroke="#0c0426" stroke-linecap="round" stroke-opacity="0.5" stroke-width="1" target-height="45.72003" target-width="179.81003" target-x="389.28" target-y="521.86"></path></g><path d="M 793.45 754.73 L 942.00 754.73" fill="none" node-id="217" stroke="#0c0426" stroke-linecap="butt" stroke-width="1" target-height="0" target-width="148.54999" target-x="793.45" target-y="754.7299"></path><path d="M 295.80 754.73 L 775.86 754.73" fill="none" node-id="219" stroke="#0c0426" stroke-linecap="butt" stroke-width="1" target-height="0" target-width="480.06" target-x="295.8" target-y="754.7299"></path><path d="M 82.00 754.73 L 268.11 754.73" fill="none" node-id="221" stroke="#0c0426" stroke-linecap="butt" stroke-width="1" target-height="0" target-width="186.10999" target-x="82" target-y="754.7299"></path><path d="M 686.53 255.27 C 686.51 252.19 684.01 249.71 680.93 249.72 C 677.85 249.73 675.36 252.23 675.37 255.31 C 675.38 258.39 677.87 260.88 680.95 260.88 C 684.04 260.87 686.54 258.36 686.53 255.27 Z" fill="#ffffff" fill-rule="nonzero" node-id="223" stroke="#0c0426" stroke-linecap="round" stroke-width="1" target-height="11.17099" target-width="11.170898" target-x="675.3646" target-y="249.70901"></path><path d="M 195.78 229.08 L 210.72 229.08 L 210.72 216.70 C 210.72 213.39 208.03 210.70 204.72 210.70 L 174.86 210.70 C 171.55 210.70 168.86 213.39 168.86 216.70 L 168.86 246.61 C 168.86 249.92 171.55 252.61 174.86 252.61 L 189.80 252.61 L 189.80 235.07 C 189.81 231.77 192.48 229.09 195.78 229.08 Z" fill="#ffffff" fill-rule="nonzero" node-id="225" stroke="#0c0426" stroke-linecap="round" stroke-width="1" target-height="41.910004" target-width="41.860016" target-x="168.86" target-y="210.7"></path><path d="M 225.65 229.08 L 210.72 229.08 L 210.72 246.61 C 210.72 249.92 208.03 252.61 204.72 252.61 L 189.80 252.61 L 189.80 265.00 C 189.80 268.31 192.49 271.00 195.80 271.00 L 225.67 271.00 C 228.98 271.00 231.67 268.31 231.67 265.00 L 231.67 235.10 C 231.68 233.50 231.04 231.97 229.91 230.84 C 228.78 229.71 227.25 229.07 225.65 229.08 Z" fill="#ffffff" fill-rule="nonzero" node-id="227" stroke="#0c0426" stroke-linecap="round" stroke-width="1" target-height="41.92534" target-width="41.87532" target-x="189.8" target-y="229.07466"></path><path d="M 210.72 246.61 L 210.72 229.08 L 195.78 229.08 C 192.47 229.08 189.78 231.77 189.78 235.08 L 189.78 252.60 L 204.72 252.60 C 208.03 252.60 210.71 249.92 210.72 246.61 Z" fill="#ffffff" fill-rule="nonzero" node-id="229" stroke="#0c0426" stroke-linecap="round" stroke-width="1" target-height="23.520004" target-width="20.940002" target-x="189.78001" target-y="229.08"></path><path d="M 785.92 598.66 L 768.92 598.66 L 768.92 584.60 C 768.92 582.80 769.63 581.06 770.91 579.79 C 772.18 578.51 773.92 577.80 775.72 577.80 L 809.72 577.80 C 811.52 577.80 813.25 578.52 814.52 579.79 C 815.80 581.07 816.51 582.80 816.51 584.60 L 816.51 618.60 C 816.51 622.35 813.47 625.39 809.72 625.39 L 792.72 625.39 L 792.72 605.49 C 792.73 603.68 792.02 601.94 790.74 600.66 C 789.46 599.38 787.73 598.66 785.92 598.66 Z" fill="#ffffff" fill-rule="nonzero" node-id="231" stroke="#0c0426" stroke-linecap="round" stroke-width="1" target-height="47.59265" target-width="47.595276" target-x="768.91736" target-y="577.79736"></path><path d="M 752.00 598.66 L 769.00 598.66 L 769.00 618.56 C 769.00 620.36 769.72 622.09 770.99 623.36 C 772.27 624.64 774.00 625.35 775.80 625.35 L 792.80 625.35 L 792.80 639.42 C 792.79 643.17 789.75 646.21 786.00 646.21 L 752.00 646.21 C 748.25 646.21 745.21 643.17 745.20 639.42 L 745.20 605.42 C 745.22 601.68 748.26 598.66 752.00 598.66 Z" fill="#ffffff" fill-rule="nonzero" node-id="233" stroke="#0c0426" stroke-linecap="round" stroke-width="1" target-height="47.55011" target-width="47.599976" target-x="745.2" target-y="598.6599"></path><path d="M 768.94 618.56 L 768.94 598.66 L 785.94 598.66 C 789.69 598.66 792.73 601.70 792.74 605.45 L 792.74 625.35 L 775.74 625.35 C 773.94 625.35 772.21 624.64 770.93 623.36 C 769.66 622.09 768.94 620.36 768.94 618.56 Z" fill="#ffffff" fill-rule="nonzero" node-id="235" stroke="#0c0426" stroke-linecap="round" stroke-width="1" target-height="26.692688" target-width="23.799988" target-x="768.94" target-y="598.66"></path><path d="M 188.70 337.14 L 324.83 337.14 C 337.48 337.14 347.74 347.40 347.74 360.05 L 347.74 360.05 C 347.74 372.70 337.48 382.96 324.83 382.96 L 188.70 382.96 C 176.05 382.96 165.79 372.70 165.79 360.05 L 165.79 360.05 C 165.79 347.40 176.05 337.14 188.70 337.14 Z" fill="#ffffff" fill-rule="nonzero" node-id="237" stroke="#0c0426" stroke-linecap="round" stroke-width="1" target-height="45.820007" target-width="181.95" target-x="165.79" target-y="337.14"></path><g node-id="270"><path d="M 322.29 363.50 L 325.34 360.46 L 325.34 360.46 L 333.27 368.38 C 334.11 369.23 334.11 370.59 333.27 371.44 L 333.27 371.44 C 332.42 372.28 331.06 372.28 330.21 371.44 L 322.29 363.51 L 322.29 363.51 Z" fill="#0c0426" fill-rule="nonzero" group-id="8" node-id="241" stroke="none" target-height="11.82489" target-width="11.82489" target-x="322.28522" target-y="360.45703"></path></g><g node-id="271"><path d="M 312.85 351.02 L 312.85 351.02 C 316.84 347.03 323.31 347.03 327.30 351.02 L 327.46 351.17 C 331.45 355.17 331.45 361.63 327.46 365.62 L 327.46 365.62 C 323.47 369.61 317.00 369.61 313.01 365.62 L 312.86 365.46 C 308.87 361.47 308.86 355.00 312.85 351.02 Z" fill="#ffffff" fill-rule="nonzero" group-id="9" node-id="246" stroke="#0c0426" stroke-linecap="round" stroke-width="1" target-height="22.58725" target-width="22.58728" target-x="308.86362" target-y="347.02603"></path></g><path d="M 813.97 357.89 C 813.97 359.11 813.49 360.27 812.63 361.14 C 811.76 362.00 810.60 362.48 809.38 362.48 C 808.16 362.48 807.00 362.00 806.13 361.14 C 805.27 360.27 804.79 359.11 804.79 357.89 C 804.79 356.67 805.27 355.51 806.13 354.64 C 807.00 353.78 808.16 353.30 809.38 353.30 C 810.60 353.30 811.76 353.78 812.63 354.64 C 813.49 355.51 813.97 356.67 813.97 357.89 Z" fill="#ffffff" fill-rule="nonzero" node-id="249" stroke="#0c0426" stroke-linecap="round" stroke-width="1" target-height="9.179993" target-width="9.180176" target-x="804.7899" target-y="353.30002"></path><path d="M 784.01 396.44 C 784.01 397.66 783.53 398.82 782.67 399.69 C 781.80 400.55 780.64 401.03 779.42 401.03 C 778.20 401.03 777.04 400.55 776.17 399.69 C 775.31 398.82 774.83 397.66 774.83 396.44 C 774.83 395.22 775.31 394.06 776.17 393.19 C 777.04 392.33 778.20 391.85 779.42 391.85 C 780.64 391.85 781.80 392.33 782.67 393.19 C 783.53 394.06 784.01 395.22 784.01 396.44 Z" fill="#ffffff" fill-rule="nonzero" node-id="251" stroke="#0c0426" stroke-linecap="round" stroke-width="1" target-height="9.179932" target-width="9.180115" target-x="774.8299" target-y="391.85004"></path><path d="M 812.77 429.00 C 812.77 430.22 812.29 431.38 811.43 432.25 C 810.56 433.11 809.40 433.59 808.18 433.59 C 806.96 433.59 805.80 433.11 804.93 432.25 C 804.07 431.38 803.59 430.22 803.59 429.00 C 803.59 427.78 804.07 426.62 804.93 425.75 C 805.80 424.89 806.96 424.41 808.18 424.41 C 809.40 424.41 810.56 424.89 811.43 425.75 C 812.29 426.62 812.77 427.78 812.77 429.00 Z" fill="#ffffff" fill-rule="nonzero" node-id="253" stroke="#0c0426" stroke-linecap="round" stroke-width="1" target-height="9.179993" target-width="9.180054" target-x="803.58997" target-y="424.41"></path><path d="M 836.74 439.36 C 836.74 440.58 836.26 441.74 835.40 442.61 C 834.53 443.47 833.37 443.95 832.15 443.95 C 830.93 443.95 829.77 443.47 828.90 442.61 C 828.04 441.74 827.56 440.58 827.56 439.36 C 827.56 438.14 828.04 436.98 828.90 436.11 C 829.77 435.25 830.93 434.77 832.15 434.77 C 833.37 434.77 834.53 435.25 835.40 436.11 C 836.26 436.98 836.74 438.14 836.74 439.36 Z" fill="#ffffff" fill-rule="nonzero" node-id="255" stroke="#0c0426" stroke-linecap="round" stroke-width="1" target-height="9.180023" target-width="9.180054" target-x="827.56" target-y="434.77"></path><path d="M 806.78 477.91 C 806.78 479.13 806.30 480.29 805.44 481.16 C 804.57 482.02 803.41 482.50 802.19 482.50 C 800.97 482.50 799.81 482.02 798.94 481.16 C 798.08 480.29 797.60 479.13 797.60 477.91 C 797.60 476.69 798.08 475.53 798.94 474.66 C 799.81 473.80 800.97 473.32 802.19 473.32 C 803.41 473.32 804.57 473.80 805.44 474.66 C 806.30 475.53 806.78 476.69 806.78 477.91 Z" fill="#ffffff" fill-rule="nonzero" node-id="257" stroke="#0c0426" stroke-linecap="round" stroke-width="1" target-height="9.179993" target-width="9.180054" target-x="797.6" target-y="473.32"></path><path d="M 835.54 510.47 C 835.54 511.69 835.06 512.85 834.20 513.72 C 833.33 514.58 832.17 515.06 830.95 515.06 C 829.73 515.06 828.57 514.58 827.70 513.72 C 826.84 512.85 826.36 511.69 826.36 510.47 C 826.36 509.25 826.84 508.09 827.70 507.22 C 828.57 506.36 829.73 505.88 830.95 505.88 C 832.17 505.88 833.33 506.36 834.20 507.22 C 835.06 508.09 835.54 509.25 835.54 510.47 Z" fill="#ffffff" fill-rule="nonzero" node-id="259" stroke="#0c0426" stroke-linecap="round" stroke-width="1" target-height="9.179993" target-width="9.180054" target-x="826.36" target-y="505.88"></path><path d="M 788.80 539.05 C 788.80 540.27 788.32 541.43 787.46 542.30 C 786.59 543.16 785.43 543.64 784.21 543.64 C 782.99 543.64 781.83 543.16 780.96 542.30 C 780.10 541.43 779.62 540.27 779.62 539.05 C 779.62 537.83 780.10 536.67 780.96 535.80 C 781.83 534.94 782.99 534.46 784.21 534.46 C 785.43 534.46 786.59 534.94 787.46 535.80 C 788.32 536.67 788.80 537.83 788.80 539.05 Z" fill="#ffffff" fill-rule="nonzero" node-id="261" stroke="#0c0426" stroke-linecap="round" stroke-width="1" target-height="9.180054" target-width="9.180054" target-x="779.62" target-y="534.45996"></path></svg>